<svg width="11" height="12" viewBox="0 0 11 12" fill="none" xmlns="http://www.w3.org/2000/svg">
<path d="M10.1978 7.14046L5.61448 11.3071C5.53375 11.38 5.43479 11.4165 5.33323 11.4165C5.23167 11.4165 5.13222 11.3807 5.05276 11.3083L0.46943 7.14161C0.299456 6.98682 0.286852 6.7238 0.441461 6.55452C0.596488 6.38281 0.860472 6.37223 1.03026 6.52603L4.91657 10.0571V0.583171C4.91657 0.352858 5.10292 0.189941 5.3098 0.189941C5.51667 0.189941 5.7499 0.352962 5.7499 0.583171V10.0571L9.63532 6.52327C9.805 6.36947 10.0692 6.38005 10.2241 6.55176C10.3801 6.7238 10.3671 6.98682 10.1978 7.14046Z" fill="#3E3F48"/>
</svg>
