<svg width="10" height="12" viewBox="0 0 10 12" fill="none" xmlns="http://www.w3.org/2000/svg">
<path d="M9.86443 4.57063L5.28116 0.116911C5.20043 0.0389708 5.10148 3.67663e-07 4.99991 3.67663e-07C4.89835 3.67663e-07 4.7989 0.0382747 4.71945 0.115686L0.136176 4.56941C-0.0337952 4.73486 -0.0463992 5.01601 0.108208 5.19694C0.263232 5.38049 0.527213 5.39179 0.697002 5.22739L4.58325 1.45303V11.5797C4.58325 11.8259 4.7696 12 4.97648 12C5.18335 12 5.41658 11.8257 5.41658 11.5797V1.45303L9.30194 5.23034C9.47163 5.39474 9.73579 5.38344 9.89073 5.19989C10.0467 5.01601 10.0337 4.73486 9.86443 4.57063Z" fill="#3E3F48"/>
</svg>
